<svg version="1.1" id="Layer_1" xmlns="http://www.w3.org/2000/svg" xmlns:xlink="http://www.w3.org/1999/xlink" x="0px" y="0px"
	 width="100%" viewBox="0 0 1889 465" enable-background="new 0 0 1889 465" xml:space="preserve">
<path fill="#FFFFFF" opacity="1.000000" stroke="none" 
	d="
M1890.000000,169.000000 
	C1890.000000,267.887695 1890.000000,366.775421 1890.000000,466.000000 
	C1860.646606,466.000000 1831.291992,466.000000 1801.579102,465.661591 
	C1805.676392,463.140076 1808.604126,459.991302 1809.075439,454.694427 
	C1809.564697,449.198395 1810.594971,443.751282 1811.360596,438.278900 
	C1812.917114,427.154541 1814.477417,416.030609 1815.992920,404.900604 
	C1817.158569,396.338501 1818.287231,387.771118 1819.379761,379.199371 
	C1820.617310,369.489471 1821.891968,359.782776 1822.969727,350.054657 
	C1823.846069,342.144653 1817.679199,335.952118 1810.059448,336.096863 
	C1802.155884,336.246979 1796.803833,341.541840 1795.961182,350.044464 
	C1795.091919,358.813873 1794.027832,367.568085 1792.844360,376.301270 
	C1791.336914,387.426025 1789.603638,398.520050 1788.005493,409.632782 
	C1786.603027,419.385376 1785.252686,429.145477 1783.865967,438.996826 
	C1781.621826,438.996826 1779.966797,438.996826 1778.311646,438.996826 
	C1229.725098,438.997864 681.138550,438.998962 132.552002,438.999176 
	C131.218979,438.999176 129.845154,439.197571 128.559082,438.948517 
	C111.523239,435.649750 96.235832,429.298309 83.791763,416.397430 
	C65.008537,396.924622 59.814632,373.711426 63.109318,347.841858 
	C64.835747,334.286041 67.347778,320.824280 68.824020,307.245972 
	C69.345917,302.445618 70.489212,300.744995 75.483681,300.888184 
	C87.592026,301.235321 99.717033,301.001038 112.224396,301.001038 
	C100.074585,253.042938 88.068352,205.651535 75.714012,156.886108 
	C69.820274,167.806564 64.599648,177.279495 59.563305,186.849396 
	C44.783772,214.933044 30.094416,243.064133 15.332688,271.157166 
	C10.614646,280.136047 5.780845,289.054108 1.000003,298.000000 
	C1.000000,199.112289 1.000000,100.224586 1.000000,1.000000 
	C30.353369,1.000000 59.708027,1.000000 89.419876,1.329711 
	C87.177467,4.476087 83.407516,6.885779 82.253273,10.205055 
	C80.533302,15.151207 80.693085,20.743704 79.991707,26.053080 
	C78.906082,34.271278 77.793625,42.486118 76.647179,50.696049 
	C75.120789,61.626755 73.545990,72.550697 72.001167,83.478844 
	C70.728134,92.484306 69.117653,101.461746 68.345970,110.510384 
	C67.939957,115.271187 67.892303,120.636223 69.701126,124.865150 
	C71.898468,130.002411 79.966179,132.341431 84.655098,130.815140 
	C90.355408,128.959641 94.543114,122.853546 95.072868,116.822708 
	C95.842072,108.066032 96.983475,99.336021 98.186127,90.625008 
	C99.673004,79.855324 101.450249,69.125984 102.981049,58.362011 
	C104.412621,48.295712 105.686066,38.206928 107.046043,28.000938 
	C109.777954,28.000938 111.930031,28.000940 114.082115,28.000938 
	C660.714844,28.000786 1207.347656,27.993553 1753.980347,28.090073 
	C1760.121704,28.091158 1766.505859,28.602892 1772.364014,30.300388 
	C1807.468506,40.472424 1826.860107,67.290062 1828.745728,101.624336 
	C1829.339111,112.430275 1827.104370,123.422157 1825.833008,134.290192 
	C1824.815308,142.988937 1822.947876,151.596954 1822.146362,160.308609 
	C1821.742554,164.695892 1820.539551,166.213898 1815.994873,166.100800 
	C1803.711792,165.795120 1791.416138,165.996140 1778.708252,165.996140 
	C1790.846802,213.934998 1802.853882,261.354248 1815.217529,310.182068 
	C1817.747437,305.633484 1819.500000,302.599335 1821.143677,299.507202 
	C1827.798462,286.988098 1834.442383,274.463043 1841.048340,261.918060 
	C1852.063232,241.000534 1863.036133,220.060822 1874.046631,199.140930 
	C1879.340942,189.081619 1884.680786,179.046204 1890.000000,169.000000 
M1175.982544,341.143127 
	C1177.337769,330.143524 1178.674805,319.141663 1180.054077,308.145081 
	C1181.026733,300.389587 1182.005127,292.634125 1183.073242,284.891357 
	C1184.673218,273.293396 1186.418823,261.715271 1187.978760,250.112076 
	C1189.110596,241.693420 1189.931030,233.232483 1191.091187,224.818100 
	C1192.624756,213.696426 1194.438843,202.613449 1195.975464,191.492172 
	C1197.416138,181.064072 1198.652466,170.607727 1200.023682,159.809845 
	C1226.358398,159.809845 1252.096924,159.809845 1277.556519,159.809845 
	C1279.170044,147.413849 1280.722534,135.488098 1282.316040,123.246170 
	C1214.599243,123.246170 1147.535645,123.246170 1079.945190,123.246170 
	C1078.333984,135.385849 1076.722290,147.529922 1075.055908,160.085266 
	C1100.814819,160.085266 1126.243774,160.085266 1152.134155,160.085266 
	C1151.718140,163.211609 1151.338135,165.908966 1151.003662,168.611984 
	C1149.941650,177.199280 1148.967773,185.798157 1147.827393,194.374939 
	C1146.282471,205.993118 1144.559448,217.587646 1143.018188,229.206314 
	C1141.860596,237.934219 1140.953491,246.695450 1139.782104,255.421371 
	C1138.267578,266.705688 1136.582153,277.966980 1135.005981,289.243134 
	C1133.744751,298.265686 1132.492920,307.289948 1131.317505,316.323944 
	C1130.204224,324.881927 1129.196167,333.453613 1128.397095,342.850372 
	C1143.604736,342.899231 1158.812500,342.959656 1174.020142,342.954895 
	C1174.632568,342.954712 1175.244751,342.337982 1175.982544,341.143127 
M1024.980225,341.139771 
	C1026.400391,329.565857 1027.820557,317.991913 1029.299072,305.942627 
	C985.048645,305.942627 941.628357,305.942627 898.287109,305.942627 
	C898.899048,299.733673 899.319641,293.887390 900.079773,288.085571 
	C901.623047,276.305969 903.504395,264.568909 904.910767,252.774277 
	C905.357361,249.028885 906.748840,247.913666 910.453186,247.927155 
	C944.438110,248.050751 978.423645,247.999908 1012.408997,247.999908 
	C1014.185364,247.999908 1015.961731,247.999878 1017.508362,247.999878 
	C1019.081055,235.718887 1020.579102,224.020828 1022.144226,211.798737 
	C984.627991,211.798737 947.894165,211.798737 910.632324,211.798737 
	C912.921265,194.346985 915.143921,177.400711 917.440125,159.893768 
	C960.902344,159.893768 1004.421814,159.893768 1047.765259,159.893768 
	C1049.354492,147.388367 1050.870728,135.456924 1052.453735,122.999863 
	C1049.793457,122.999863 1048.001831,122.999870 1046.210083,122.999870 
	C1000.063293,122.999870 953.916504,122.999870 907.769714,122.999870 
	C898.273804,122.999870 888.775208,123.130203 879.283325,122.933983 
	C875.625977,122.858376 873.704468,123.513908 873.885071,127.802368 
	C874.034302,131.344864 873.254761,134.940643 872.751465,138.493637 
	C871.543030,147.024445 870.137512,155.528748 869.028381,164.071884 
	C867.558105,175.397720 866.396057,186.763672 864.913635,198.087784 
	C863.393738,209.698456 861.601868,221.273254 860.014587,232.875443 
	C858.843201,241.437164 857.849365,250.023010 856.703308,258.588348 
	C855.514587,267.473083 854.226990,276.344543 853.002686,285.224579 
	C851.757019,294.259949 850.419983,303.284790 849.335083,312.339691 
	C848.151733,322.215668 847.211914,332.120880 846.435669,342.834442 
	C846.929993,342.887695 847.424377,342.987488 847.918701,342.987549 
	C905.763306,342.996490 963.607849,343.003662 1021.452393,342.958862 
	C1022.580139,342.958008 1023.707275,342.342285 1024.980225,341.139771 
M411.391418,342.852722 
	C411.886444,342.901031 412.381439,342.991547 412.876465,342.991608 
	C470.742706,342.998627 528.608948,343.004456 586.475159,342.959259 
	C587.602539,342.958374 588.729309,342.353638 590.211365,341.274475 
	C591.894958,329.642700 593.578491,318.010925 595.340393,305.837646 
	C550.977844,305.837646 507.555328,305.837646 463.853760,305.837646 
	C466.409546,286.333832 468.904755,267.292236 471.432831,247.999893 
	C473.414276,247.999893 475.224976,247.999908 477.035675,247.999908 
	C510.866791,247.999893 544.698120,247.937256 578.528625,248.081436 
	C582.617554,248.098862 583.975159,246.738358 584.097351,242.764099 
	C584.221741,238.716354 585.166504,234.697708 585.679504,230.657120 
	C586.452148,224.571838 587.161743,218.478546 587.947998,211.975891 
	C550.454163,211.975891 513.340515,211.975891 476.262207,211.975891 
	C478.622681,194.432449 480.933563,177.257294 483.274811,159.856628 
	C527.052612,159.856628 570.330139,159.856628 613.566895,159.856628 
	C615.161011,147.503571 616.715637,135.456207 618.286194,123.285461 
	C558.363464,123.285461 499.283386,123.285461 440.239990,123.285461 
	C439.468994,129.396942 438.726624,135.221832 438.000854,141.048782 
	C436.952728,149.463486 435.993958,157.890167 434.856506,166.292725 
	C433.306885,177.739700 431.563324,189.160446 430.019745,200.608185 
	C428.864014,209.179688 427.974243,217.787064 426.816589,226.358276 
	C425.639557,235.072968 424.171173,243.748749 423.029663,252.467667 
	C421.863953,261.371765 421.066528,270.324432 419.879150,279.225311 
	C418.373291,290.513763 416.592590,301.765259 415.013367,313.044281 
	C413.662262,322.693878 412.428223,332.359924 411.391418,342.852722 
M385.779694,340.259735 
	C372.851746,320.337952 360.017639,300.354431 346.958557,280.518951 
	C339.794983,269.638214 333.975311,257.609283 322.062897,250.312271 
	C336.161469,246.520279 349.080597,240.948395 359.819275,231.566635 
	C375.829163,217.579712 383.424805,199.865479 383.165710,178.308319 
	C382.922302,158.057938 373.127655,144.366989 356.217560,135.115753 
	C339.708313,126.083832 321.347321,123.881401 302.980591,123.157410 
	C284.678375,122.435966 266.325500,122.999512 247.994827,122.999580 
	C233.183853,122.999641 218.372894,122.999603 203.046082,122.999603 
	C202.645996,126.906250 202.376587,130.601990 201.872101,134.265366 
	C200.295670,145.712784 198.566040,157.139282 197.020798,168.590759 
	C195.865036,177.155899 194.984268,185.758057 193.834076,194.324020 
	C192.297043,205.770859 190.625351,217.199722 188.997177,228.634247 
	C187.712280,237.658066 186.307816,246.666077 185.133560,255.704117 
	C183.660995,267.038300 182.451233,278.406616 180.972900,289.739990 
	C179.857880,298.288086 178.396286,306.790955 177.277054,315.338593 
	C176.114182,324.219391 175.177429,333.129822 174.405167,342.853943 
	C189.426605,342.902069 204.448044,342.965240 219.469437,342.956055 
	C220.257767,342.955566 221.045731,342.341278 221.979828,341.142456 
	C222.861557,334.351257 223.739578,327.559570 224.625854,320.768982 
	C226.081146,309.618652 227.573303,298.473022 228.989929,287.317810 
	C230.058624,278.902374 230.930420,270.459778 232.170990,262.070831 
	C232.340408,260.925201 234.151093,259.130280 235.185074,259.141815 
	C246.100082,259.263580 257.063080,259.191498 267.896210,260.306427 
	C271.671722,260.694977 276.396515,263.356323 278.512268,266.461853 
	C290.035004,283.374847 300.847229,300.770813 311.969788,317.957977 
	C317.199127,326.038605 322.575989,334.023743 328.328674,342.816040 
	C346.093903,342.876953 363.859161,342.939423 381.624390,342.996033 
	C383.118073,343.000793 384.611908,342.966156 386.105682,342.949799 
	C386.085358,342.268158 386.065033,341.586487 385.779694,340.259735 
M1361.500000,296.999786 
	C1384.819336,296.999786 1408.138550,296.999786 1431.318604,296.999786 
	C1437.041748,312.505188 1442.675537,327.768707 1448.304688,343.019623 
	C1454.635986,343.019623 1460.629883,343.019592 1466.623901,343.019592 
	C1472.623413,343.019592 1478.627441,343.166290 1484.620972,342.977417 
	C1490.343506,342.797089 1496.200439,343.848724 1501.838257,342.318298 
	C1474.530273,268.741302 1447.520630,195.968033 1420.507812,123.186172 
	C1403.709839,123.186172 1386.948364,123.186172 1370.657227,123.186172 
	C1323.908447,196.458801 1277.383667,269.380341 1230.400879,343.019623 
	C1232.700562,343.019623 1234.279297,343.019592 1235.857910,343.019592 
	C1247.856812,343.019592 1259.941162,342.141174 1271.827515,343.298065 
	C1281.304565,344.220520 1286.725098,340.551453 1290.703125,332.874817 
	C1291.515381,331.307251 1292.343140,329.740845 1293.274414,328.242859 
	C1299.706177,317.896271 1306.167236,307.567963 1312.764893,296.999786 
	C1328.515137,296.999786 1344.507568,296.999786 1361.500000,296.999786 
M1536.965698,214.241226 
	C1543.621460,225.827133 1554.021851,233.359070 1565.662964,238.827042 
	C1581.710571,246.364792 1599.060425,250.046310 1616.264526,254.123734 
	C1627.803955,256.858582 1639.303833,260.144653 1650.355713,264.394836 
	C1656.134766,266.617340 1662.068970,270.191345 1662.036987,278.475830 
	C1661.996826,288.852814 1656.178223,294.935272 1647.934937,299.518585 
	C1635.265503,306.562988 1621.099976,308.111206 1607.151367,308.723053 
	C1593.543335,309.319916 1579.647339,308.822205 1566.219849,306.670105 
	C1549.620117,304.009521 1533.373291,299.147125 1516.954956,295.231506 
	C1515.704468,305.753235 1514.972046,317.351898 1512.670044,328.630157 
	C1511.740967,333.181671 1513.938354,333.757538 1516.335205,334.673553 
	C1535.213135,341.888672 1554.947876,345.813812 1574.980347,346.738739 
	C1591.922607,347.521027 1608.971680,347.816711 1625.975098,345.165955 
	C1643.574097,342.422363 1660.547485,338.394043 1676.134399,329.436584 
	C1693.192749,319.633606 1705.619385,306.134247 1710.629883,286.717834 
	C1713.080444,277.221008 1713.774048,267.682312 1711.110718,257.947632 
	C1707.079468,243.213470 1697.078979,233.775299 1684.196289,227.076263 
	C1664.442993,216.804535 1642.614258,213.149841 1621.280273,207.820694 
	C1610.455811,205.116776 1599.810791,201.183121 1589.650635,196.561356 
	C1585.055054,194.470886 1581.169678,190.004944 1581.888794,183.354401 
	C1582.723755,175.632278 1586.817261,169.923203 1592.842651,166.202423 
	C1602.568726,160.196548 1613.707153,157.487869 1625.048096,157.151779 
	C1636.772095,156.804291 1648.576050,157.159760 1660.262451,158.166733 
	C1669.730103,158.982513 1679.144775,160.899780 1688.454224,162.921753 
	C1696.973389,164.772064 1705.319946,167.417313 1713.610962,169.676392 
	C1715.316528,156.827652 1717.000000,144.144180 1718.712891,131.240250 
	C1718.018799,131.078323 1717.037720,131.014328 1716.203613,130.630630 
	C1696.252930,121.452202 1674.831055,119.420006 1653.357544,118.139565 
	C1644.664307,117.621185 1635.844482,118.302452 1627.142090,119.094734 
	C1616.940063,120.023544 1606.608643,120.841049 1596.678833,123.175972 
	C1576.733032,127.866043 1558.095215,135.602661 1545.572144,153.024139 
	C1532.259766,171.543427 1527.372070,191.536621 1536.965698,214.241226 
M812.412781,167.006470 
	C815.470947,168.000015 818.529053,168.993561 821.582153,169.985474 
	C823.290283,157.045227 824.971313,144.311111 826.698425,131.227097 
	C826.232483,131.149643 825.404846,131.186005 824.738159,130.875992 
	C803.917664,121.193367 781.522522,119.396286 759.106628,118.125900 
	C751.065002,117.670151 742.907410,118.315666 734.863281,119.088493 
	C724.827332,120.052696 714.733521,121.087769 704.880981,123.133949 
	C689.032166,126.425423 674.219482,132.626099 662.046387,143.562851 
	C649.920288,154.457443 643.008789,168.139130 640.790527,184.598923 
	C638.700928,200.102982 642.255432,213.263840 653.014526,224.490570 
	C659.768555,231.538177 668.182678,236.036285 676.969788,240.039139 
	C692.226440,246.989090 708.540771,250.145721 724.669617,254.123779 
	C736.236145,256.976593 747.736450,260.403931 758.848389,264.664825 
	C764.394714,266.791595 769.770813,270.394592 770.064514,278.108765 
	C770.487671,289.224091 763.851807,295.308685 755.306152,299.845398 
	C742.212463,306.796509 727.654968,308.283691 713.234741,308.787079 
	C701.932129,309.181641 690.551331,307.815369 679.225708,306.960602 
	C663.783569,305.795227 648.883545,302.029053 634.252625,297.070312 
	C631.418823,296.109863 628.460815,295.516083 625.317749,294.689453 
	C623.819458,305.159729 622.345825,314.978699 621.027283,324.818451 
	C619.898071,333.245270 620.047729,333.060883 628.156616,336.015442 
	C645.698730,342.407227 663.966797,345.575226 682.407654,346.752258 
	C696.580078,347.656860 710.908142,346.617950 725.142151,345.929474 
	C740.611816,345.181213 755.527405,341.753113 770.049316,336.129547 
	C790.400513,328.248566 806.771851,315.984161 815.609009,295.590881 
	C820.701111,283.840118 822.484375,271.432068 819.228577,258.566437 
	C815.151123,242.454224 803.855103,233.048370 789.918030,226.006226 
	C773.593933,217.757980 755.828613,214.041748 738.184326,210.020844 
	C724.784973,206.967300 711.348267,204.117767 699.051453,197.573715 
	C692.357544,194.011368 688.578491,187.584946 690.080383,181.106415 
	C691.590759,174.591415 695.476990,169.457535 701.110962,166.062271 
	C710.730957,160.264786 721.541504,157.594727 732.570618,157.177155 
	C744.459534,156.727020 756.412720,157.441025 768.316589,158.057556 
	C783.164124,158.826553 797.487122,162.433762 812.412781,167.006470 
z"/>
<path fill="#2B2A29" opacity="1.000000" stroke="none" 
	d="
M1890.000000,168.625000 
	C1884.680786,179.046204 1879.340942,189.081619 1874.046631,199.140930 
	C1863.036133,220.060822 1852.063232,241.000534 1841.048340,261.918060 
	C1834.442383,274.463043 1827.798462,286.988098 1821.143677,299.507202 
	C1819.500000,302.599335 1817.747437,305.633484 1815.217529,310.182068 
	C1802.853882,261.354248 1790.846802,213.934998 1778.708252,165.996140 
	C1791.416138,165.996140 1803.711792,165.795120 1815.994873,166.100800 
	C1820.539551,166.213898 1821.742554,164.695892 1822.146362,160.308609 
	C1822.947876,151.596954 1824.815308,142.988937 1825.833008,134.290192 
	C1827.104370,123.422157 1829.339111,112.430275 1828.745728,101.624336 
	C1826.860107,67.290062 1807.468506,40.472424 1772.364014,30.300388 
	C1766.505859,28.602892 1760.121704,28.091158 1753.980347,28.090073 
	C1207.347656,27.993553 660.714844,28.000786 114.082115,28.000938 
	C111.930031,28.000940 109.777954,28.000938 107.046043,28.000938 
	C105.686066,38.206928 104.412621,48.295712 102.981049,58.362011 
	C101.450249,69.125984 99.673004,79.855324 98.186127,90.625008 
	C96.983475,99.336021 95.842072,108.066032 95.072868,116.822708 
	C94.543114,122.853546 90.355408,128.959641 84.655098,130.815140 
	C79.966179,132.341431 71.898468,130.002411 69.701126,124.865150 
	C67.892303,120.636223 67.939957,115.271187 68.345970,110.510384 
	C69.117653,101.461746 70.728134,92.484306 72.001167,83.478844 
	C73.545990,72.550697 75.120789,61.626755 76.647179,50.696049 
	C77.793625,42.486118 78.906082,34.271278 79.991707,26.053080 
	C80.693085,20.743704 80.533302,15.151207 82.253273,10.205055 
	C83.407516,6.885779 87.177467,4.476087 89.888535,1.329711 
	C648.020935,1.000000 1206.041870,1.000000 1764.694580,1.386759 
	C1769.053467,2.225112 1772.901978,2.229066 1776.487915,3.201316 
	C1798.864258,9.268341 1818.268799,19.985762 1833.106079,38.455631 
	C1848.057007,57.066902 1855.054321,78.322945 1855.921753,101.830360 
	C1856.120483,107.218834 1855.571533,112.671371 1854.946899,118.045624 
	C1853.879028,127.231651 1852.435791,136.373398 1851.233032,145.544586 
	C1850.354492,152.243271 1849.609131,158.959412 1848.764404,166.000000 
	C1863.056030,166.000000 1876.527954,166.000000 1890.000000,166.000000 
	C1890.000000,166.750000 1890.000000,167.500000 1890.000000,168.625000 
z"/>
<path fill="#E31E24" opacity="1.000000" stroke="none" 
	d="
M1.000003,298.375000 
	C5.780845,289.054108 10.614646,280.136047 15.332688,271.157166 
	C30.094416,243.064133 44.783772,214.933044 59.563305,186.849396 
	C64.599648,177.279495 69.820274,167.806564 75.714012,156.886108 
	C88.068352,205.651535 100.074585,253.042938 112.224396,301.001038 
	C99.717033,301.001038 87.592026,301.235321 75.483681,300.888184 
	C70.489212,300.744995 69.345917,302.445618 68.824020,307.245972 
	C67.347778,320.824280 64.835747,334.286041 63.109318,347.841858 
	C59.814632,373.711426 65.008537,396.924622 83.791763,416.397430 
	C96.235832,429.298309 111.523239,435.649750 128.559082,438.948517 
	C129.845154,439.197571 131.218979,438.999176 132.552002,438.999176 
	C681.138550,438.998962 1229.725098,438.997864 1778.311646,438.996826 
	C1779.966797,438.996826 1781.621826,438.996826 1783.865967,438.996826 
	C1785.252686,429.145477 1786.603027,419.385376 1788.005493,409.632782 
	C1789.603638,398.520050 1791.336914,387.426025 1792.844360,376.301270 
	C1794.027832,367.568085 1795.091919,358.813873 1795.961182,350.044464 
	C1796.803833,341.541840 1802.155884,336.246979 1810.059448,336.096863 
	C1817.679199,335.952118 1823.846069,342.144653 1822.969727,350.054657 
	C1821.891968,359.782776 1820.617310,369.489471 1819.379761,379.199371 
	C1818.287231,387.771118 1817.158569,396.338501 1815.992920,404.900604 
	C1814.477417,416.030609 1812.917114,427.154541 1811.360596,438.278900 
	C1810.594971,443.751282 1809.564697,449.198395 1809.075439,454.694427 
	C1808.604126,459.991302 1805.676392,463.140076 1801.110352,465.661591 
	C1242.645752,466.000000 684.291565,466.000000 125.297966,465.620239 
	C121.754562,464.826813 118.817589,464.571259 115.951614,463.974670 
	C91.052696,458.791779 70.727936,445.935852 55.480225,425.825317 
	C41.798801,407.780640 35.536819,386.804108 35.063957,364.193024 
	C34.958004,359.126495 35.448460,354.017029 36.047386,348.972839 
	C37.138809,339.780762 38.559109,330.628235 39.761368,321.448639 
	C40.638313,314.752899 41.385525,308.040161 42.230793,301.000000 
	C27.911797,301.000000 14.455898,301.000000 1.000000,301.000000 
	C1.000000,300.250000 1.000000,299.500000 1.000003,298.375000 
z"/>
<path fill="#FFFFFF" opacity="1.000000" stroke="none" 
	d="
M1890.000000,165.531342 
	C1876.527954,166.000000 1863.056030,166.000000 1848.764404,166.000000 
	C1849.609131,158.959412 1850.354492,152.243271 1851.233032,145.544586 
	C1852.435791,136.373398 1853.879028,127.231651 1854.946899,118.045624 
	C1855.571533,112.671371 1856.120483,107.218834 1855.921753,101.830360 
	C1855.054321,78.322945 1848.057007,57.066902 1833.106079,38.455631 
	C1818.268799,19.985762 1798.864258,9.268341 1776.487915,3.201316 
	C1772.901978,2.229066 1769.053467,2.225112 1765.163208,1.386759 
	C1806.603760,1.000000 1848.207397,1.000000 1890.000000,1.000000 
	C1890.000000,55.687416 1890.000000,110.375053 1890.000000,165.531342 
z"/>
<path fill="#FFFFFF" opacity="1.000000" stroke="none" 
	d="
M1.000000,301.468658 
	C14.455898,301.000000 27.911797,301.000000 42.230793,301.000000 
	C41.385525,308.040161 40.638313,314.752899 39.761368,321.448639 
	C38.559109,330.628235 37.138809,339.780762 36.047386,348.972839 
	C35.448460,354.017029 34.958004,359.126495 35.063957,364.193024 
	C35.536819,386.804108 41.798801,407.780640 55.480225,425.825317 
	C70.727936,445.935852 91.052696,458.791779 115.951614,463.974670 
	C118.817589,464.571259 121.754562,464.826813 124.829308,465.620239 
	C83.729317,466.000000 42.458641,466.000000 1.000000,466.000000 
	C1.000000,411.312592 1.000000,356.624939 1.000000,301.468658 
z"/>
<path fill="#E31E24" opacity="1.000000" stroke="none" 
	d="
M327.886017,342.052155 
	C322.575989,334.023743 317.199127,326.038605 311.969788,317.957977 
	C300.847229,300.770813 290.035004,283.374847 278.512268,266.461853 
	C276.396515,263.356323 271.671722,260.694977 267.896210,260.306427 
	C257.063080,259.191498 246.100082,259.263580 235.185074,259.141815 
	C234.151093,259.130280 232.340408,260.925201 232.170990,262.070831 
	C230.930420,270.459778 230.058624,278.902374 228.989929,287.317810 
	C227.573303,298.473022 226.081146,309.618652 224.625854,320.768982 
	C223.739578,327.559570 222.861557,334.351257 221.449005,341.573547 
	C205.326050,342.012177 189.733932,342.019714 174.141800,342.027283 
	C175.177429,333.129822 176.114182,324.219391 177.277054,315.338593 
	C178.396286,306.790955 179.857880,298.288086 180.972900,289.739990 
	C182.451233,278.406616 183.660995,267.038300 185.133560,255.704117 
	C186.307816,246.666077 187.712280,237.658066 188.997177,228.634247 
	C190.625351,217.199722 192.297043,205.770859 193.834076,194.324020 
	C194.984268,185.758057 195.865036,177.155899 197.020798,168.590759 
	C198.566040,157.139282 200.295670,145.712784 201.872101,134.265366 
	C202.376587,130.601990 202.645996,126.906250 203.046082,122.999603 
	C218.372894,122.999603 233.183853,122.999641 247.994827,122.999580 
	C266.325500,122.999512 284.678375,122.435966 302.980591,123.157410 
	C321.347321,123.881401 339.708313,126.083832 356.217560,135.115753 
	C373.127655,144.366989 382.922302,158.057938 383.165710,178.308319 
	C383.424805,199.865479 375.829163,217.579712 359.819275,231.566635 
	C349.080597,240.948395 336.161469,246.520279 322.062897,250.312271 
	C333.975311,257.609283 339.794983,269.638214 346.958557,280.518951 
	C360.017639,300.354431 372.851746,320.337952 385.629150,340.897980 
	C383.683075,341.690796 381.887939,341.974701 380.092010,341.979950 
	C362.690094,342.030731 345.288025,342.034790 327.886017,342.052155 
M308.373901,162.000259 
	C304.539185,161.334915 300.711060,160.143448 296.868591,160.095154 
	C280.068207,159.883911 263.263672,160.004227 245.951172,160.004227 
	C243.200119,180.654816 240.481979,201.058395 237.563278,222.967438 
	C259.179535,221.941956 280.062866,222.038345 300.638519,219.569946 
	C313.106140,218.074249 324.512146,211.689117 329.670624,198.595230 
	C333.544189,188.762802 335.355835,177.199402 325.103210,169.909531 
	C320.345642,166.526794 314.556519,164.594849 308.373901,162.000259 
z"/>
<path fill="#2B2A29" opacity="1.000000" stroke="none" 
	d="
M1361.000000,296.999786 
	C1344.507568,296.999786 1328.515137,296.999786 1312.764893,296.999786 
	C1306.167236,307.567963 1299.706177,317.896271 1293.274414,328.242859 
	C1292.343140,329.740845 1291.515381,331.307251 1290.703125,332.874817 
	C1286.725098,340.551453 1281.304565,344.220520 1271.827515,343.298065 
	C1259.941162,342.141174 1247.856812,343.019592 1235.857910,343.019592 
	C1234.279297,343.019592 1232.700562,343.019623 1230.400879,343.019623 
	C1277.383667,269.380341 1323.908447,196.458801 1370.657227,123.186172 
	C1386.948364,123.186172 1403.709839,123.186172 1420.507812,123.186172 
	C1447.520630,195.968033 1474.530273,268.741302 1501.838257,342.318298 
	C1496.200439,343.848724 1490.343506,342.797089 1484.620972,342.977417 
	C1478.627441,343.166290 1472.623413,343.019592 1466.623901,343.019592 
	C1460.629883,343.019592 1454.635986,343.019623 1448.304688,343.019623 
	C1442.675537,327.768707 1437.041748,312.505188 1431.318604,296.999786 
	C1408.138550,296.999786 1384.819336,296.999786 1361.000000,296.999786 
M1415.048584,247.381500 
	C1406.459351,222.594711 1397.870117,197.807907 1388.950684,172.068451 
	C1370.803467,201.629211 1353.398804,229.980301 1335.742310,258.741699 
	C1363.748047,258.741699 1391.254395,258.741699 1419.049561,258.741699 
	C1417.829102,255.019104 1416.683472,251.524612 1415.048584,247.381500 
z"/>
<path fill="#E31E24" opacity="1.000000" stroke="none" 
	d="
M411.142395,342.018677 
	C412.428223,332.359924 413.662262,322.693878 415.013367,313.044281 
	C416.592590,301.765259 418.373291,290.513763 419.879150,279.225311 
	C421.066528,270.324432 421.863953,261.371765 423.029663,252.467667 
	C424.171173,243.748749 425.639557,235.072968 426.816589,226.358276 
	C427.974243,217.787064 428.864014,209.179688 430.019745,200.608185 
	C431.563324,189.160446 433.306885,177.739700 434.856506,166.292725 
	C435.993958,157.890167 436.952728,149.463486 438.000854,141.048782 
	C438.726624,135.221832 439.468994,129.396942 440.239990,123.285461 
	C499.283386,123.285461 558.363464,123.285461 618.286194,123.285461 
	C616.715637,135.456207 615.161011,147.503571 613.566895,159.856628 
	C570.330139,159.856628 527.052612,159.856628 483.274811,159.856628 
	C480.933563,177.257294 478.622681,194.432449 476.262207,211.975891 
	C513.340515,211.975891 550.454163,211.975891 587.947998,211.975891 
	C587.161743,218.478546 586.452148,224.571838 585.679504,230.657120 
	C585.166504,234.697708 584.221741,238.716354 584.097351,242.764099 
	C583.975159,246.738358 582.617554,248.098862 578.528625,248.081436 
	C544.698120,247.937256 510.866791,247.999893 477.035675,247.999908 
	C475.224976,247.999908 473.414276,247.999893 471.432831,247.999893 
	C468.904755,267.292236 466.409546,286.333832 463.853760,305.837646 
	C507.555328,305.837646 550.977844,305.837646 595.340393,305.837646 
	C593.578491,318.010925 591.894958,329.642700 589.574585,341.641296 
	C529.672668,342.011658 470.407532,342.015167 411.142395,342.018677 
z"/>
<path fill="#E31E24" opacity="1.000000" stroke="none" 
	d="
M846.166016,342.013336 
	C847.211914,332.120880 848.151733,322.215668 849.335083,312.339691 
	C850.419983,303.284790 851.757019,294.259949 853.002686,285.224579 
	C854.226990,276.344543 855.514587,267.473083 856.703308,258.588348 
	C857.849365,250.023010 858.843201,241.437164 860.014587,232.875443 
	C861.601868,221.273254 863.393738,209.698456 864.913635,198.087784 
	C866.396057,186.763672 867.558105,175.397720 869.028381,164.071884 
	C870.137512,155.528748 871.543030,147.024445 872.751465,138.493637 
	C873.254761,134.940643 874.034302,131.344864 873.885071,127.802368 
	C873.704468,123.513908 875.625977,122.858376 879.283325,122.933983 
	C888.775208,123.130203 898.273804,122.999870 907.769714,122.999870 
	C953.916504,122.999870 1000.063293,122.999870 1046.210083,122.999870 
	C1048.001831,122.999870 1049.793457,122.999863 1052.453735,122.999863 
	C1050.870728,135.456924 1049.354492,147.388367 1047.765259,159.893768 
	C1004.421814,159.893768 960.902344,159.893768 917.440125,159.893768 
	C915.143921,177.400711 912.921265,194.346985 910.632324,211.798737 
	C947.894165,211.798737 984.627991,211.798737 1022.144226,211.798737 
	C1020.579102,224.020828 1019.081055,235.718887 1017.508362,247.999878 
	C1015.961731,247.999878 1014.185364,247.999908 1012.408997,247.999908 
	C978.423645,247.999908 944.438110,248.050751 910.453186,247.927155 
	C906.748840,247.913666 905.357361,249.028885 904.910767,252.774277 
	C903.504395,264.568909 901.623047,276.305969 900.079773,288.085571 
	C899.319641,293.887390 898.899048,299.733673 898.287109,305.942627 
	C941.628357,305.942627 985.048645,305.942627 1029.299072,305.942627 
	C1027.820557,317.991913 1026.400391,329.565857 1024.449585,341.572205 
	C964.667908,342.007568 905.416992,342.010437 846.166016,342.013336 
z"/>
<path fill="#2B2A29" opacity="1.000000" stroke="none" 
	d="
M1536.935303,213.851532 
	C1527.372070,191.536621 1532.259766,171.543427 1545.572144,153.024139 
	C1558.095215,135.602661 1576.733032,127.866043 1596.678833,123.175972 
	C1606.608643,120.841049 1616.940063,120.023544 1627.142090,119.094734 
	C1635.844482,118.302452 1644.664307,117.621185 1653.357544,118.139565 
	C1674.831055,119.420006 1696.252930,121.452202 1716.203613,130.630630 
	C1717.037720,131.014328 1718.018799,131.078323 1718.712891,131.240250 
	C1717.000000,144.144180 1715.316528,156.827652 1713.610962,169.676392 
	C1705.319946,167.417313 1696.973389,164.772064 1688.454224,162.921753 
	C1679.144775,160.899780 1669.730103,158.982513 1660.262451,158.166733 
	C1648.576050,157.159760 1636.772095,156.804291 1625.048096,157.151779 
	C1613.707153,157.487869 1602.568726,160.196548 1592.842651,166.202423 
	C1586.817261,169.923203 1582.723755,175.632278 1581.888794,183.354401 
	C1581.169678,190.004944 1585.055054,194.470886 1589.650635,196.561356 
	C1599.810791,201.183121 1610.455811,205.116776 1621.280273,207.820694 
	C1642.614258,213.149841 1664.442993,216.804535 1684.196289,227.076263 
	C1697.078979,233.775299 1707.079468,243.213470 1711.110718,257.947632 
	C1713.774048,267.682312 1713.080444,277.221008 1710.629883,286.717834 
	C1705.619385,306.134247 1693.192749,319.633606 1676.134399,329.436584 
	C1660.547485,338.394043 1643.574097,342.422363 1625.975098,345.165955 
	C1608.971680,347.816711 1591.922607,347.521027 1574.980347,346.738739 
	C1554.947876,345.813812 1535.213135,341.888672 1516.335205,334.673553 
	C1513.938354,333.757538 1511.740967,333.181671 1512.670044,328.630157 
	C1514.972046,317.351898 1515.704468,305.753235 1516.954956,295.231506 
	C1533.373291,299.147125 1549.620117,304.009521 1566.219849,306.670105 
	C1579.647339,308.822205 1593.543335,309.319916 1607.151367,308.723053 
	C1621.099976,308.111206 1635.265503,306.562988 1647.934937,299.518585 
	C1656.178223,294.935272 1661.996826,288.852814 1662.036987,278.475830 
	C1662.068970,270.191345 1656.134766,266.617340 1650.355713,264.394836 
	C1639.303833,260.144653 1627.803955,256.858582 1616.264526,254.123734 
	C1599.060425,250.046310 1581.710571,246.364792 1565.662964,238.827042 
	C1554.021851,233.359070 1543.621460,225.827133 1536.935303,213.851532 
z"/>
<path fill="#E31E24" opacity="1.000000" stroke="none" 
	d="
M811.998291,167.000031 
	C797.487122,162.433762 783.164124,158.826553 768.316589,158.057556 
	C756.412720,157.441025 744.459534,156.727020 732.570618,157.177155 
	C721.541504,157.594727 710.730957,160.264786 701.110962,166.062271 
	C695.476990,169.457535 691.590759,174.591415 690.080383,181.106415 
	C688.578491,187.584946 692.357544,194.011368 699.051453,197.573715 
	C711.348267,204.117767 724.784973,206.967300 738.184326,210.020844 
	C755.828613,214.041748 773.593933,217.757980 789.918030,226.006226 
	C803.855103,233.048370 815.151123,242.454224 819.228577,258.566437 
	C822.484375,271.432068 820.701111,283.840118 815.609009,295.590881 
	C806.771851,315.984161 790.400513,328.248566 770.049316,336.129547 
	C755.527405,341.753113 740.611816,345.181213 725.142151,345.929474 
	C710.908142,346.617950 696.580078,347.656860 682.407654,346.752258 
	C663.966797,345.575226 645.698730,342.407227 628.156616,336.015442 
	C620.047729,333.060883 619.898071,333.245270 621.027283,324.818451 
	C622.345825,314.978699 623.819458,305.159729 625.317749,294.689453 
	C628.460815,295.516083 631.418823,296.109863 634.252625,297.070312 
	C648.883545,302.029053 663.783569,305.795227 679.225708,306.960602 
	C690.551331,307.815369 701.932129,309.181641 713.234741,308.787079 
	C727.654968,308.283691 742.212463,306.796509 755.306152,299.845398 
	C763.851807,295.308685 770.487671,289.224091 770.064514,278.108765 
	C769.770813,270.394592 764.394714,266.791595 758.848389,264.664825 
	C747.736450,260.403931 736.236145,256.976593 724.669617,254.123779 
	C708.540771,250.145721 692.226440,246.989090 676.969788,240.039139 
	C668.182678,236.036285 659.768555,231.538177 653.014526,224.490570 
	C642.255432,213.263840 638.700928,200.102982 640.790527,184.598923 
	C643.008789,168.139130 649.920288,154.457443 662.046387,143.562851 
	C674.219482,132.626099 689.032166,126.425423 704.880981,123.133949 
	C714.733521,121.087769 724.827332,120.052696 734.863281,119.088493 
	C742.907410,118.315666 751.065002,117.670151 759.106628,118.125900 
	C781.522522,119.396286 803.917664,121.193367 824.738159,130.875992 
	C825.404846,131.186005 826.232483,131.149643 826.698425,131.227097 
	C824.971313,144.311111 823.290283,157.045227 821.582153,169.985474 
	C818.529053,168.993561 815.470947,168.000015 811.998291,167.000031 
z"/>
<path fill="#E31E24" opacity="1.000000" stroke="none" 
	d="
M1128.141602,342.019226 
	C1129.196167,333.453613 1130.204224,324.881927 1131.317505,316.323944 
	C1132.492920,307.289948 1133.744751,298.265686 1135.005981,289.243134 
	C1136.582153,277.966980 1138.267578,266.705688 1139.782104,255.421371 
	C1140.953491,246.695450 1141.860596,237.934219 1143.018188,229.206314 
	C1144.559448,217.587646 1146.282471,205.993118 1147.827393,194.374939 
	C1148.967773,185.798157 1149.941650,177.199280 1151.003662,168.611984 
	C1151.338135,165.908966 1151.718140,163.211609 1152.134155,160.085266 
	C1126.243774,160.085266 1100.814819,160.085266 1075.055908,160.085266 
	C1076.722290,147.529922 1078.333984,135.385849 1079.945190,123.246170 
	C1147.535645,123.246170 1214.599243,123.246170 1282.316040,123.246170 
	C1280.722534,135.488098 1279.170044,147.413849 1277.556519,159.809845 
	C1252.096924,159.809845 1226.358398,159.809845 1200.023682,159.809845 
	C1198.652466,170.607727 1197.416138,181.064072 1195.975464,191.492172 
	C1194.438843,202.613449 1192.624756,213.696426 1191.091187,224.818100 
	C1189.931030,233.232483 1189.110596,241.693420 1187.978760,250.112076 
	C1186.418823,261.715271 1184.673218,273.293396 1183.073242,284.891357 
	C1182.005127,292.634125 1181.026733,300.389587 1180.054077,308.145081 
	C1178.674805,319.141663 1177.337769,330.143524 1175.460449,341.571411 
	C1159.339478,342.006195 1143.740601,342.012726 1128.141602,342.019226 
z"/>
<path fill="#DF0121" opacity="1.000000" stroke="none" 
	d="
M411.266907,342.435699 
	C470.407532,342.015167 529.672668,342.011658 589.397095,342.019379 
	C588.729309,342.353638 587.602539,342.958374 586.475159,342.959259 
	C528.608948,343.004456 470.742706,342.998627 412.876465,342.991608 
	C412.381439,342.991547 411.886444,342.901031 411.266907,342.435699 
z"/>
<path fill="#E00121" opacity="1.000000" stroke="none" 
	d="
M846.300842,342.423889 
	C905.416992,342.010437 964.667908,342.007568 1024.376831,342.009064 
	C1023.707275,342.342285 1022.580139,342.958008 1021.452393,342.958862 
	C963.607849,343.003662 905.763306,342.996490 847.918701,342.987549 
	C847.424377,342.987488 846.929993,342.887695 846.300842,342.423889 
z"/>
<path fill="#DE0120" opacity="1.000000" stroke="none" 
	d="
M328.107361,342.434082 
	C345.288025,342.034790 362.690094,342.030731 380.092010,341.979950 
	C381.887939,341.974701 383.683075,341.690796 385.761658,341.220520 
	C386.065033,341.586487 386.085358,342.268158 386.105652,342.949829 
	C384.611908,342.966156 383.118073,343.000793 381.624390,342.996033 
	C363.859161,342.939423 346.093903,342.876953 328.107361,342.434082 
z"/>
<path fill="#DF0120" opacity="1.000000" stroke="none" 
	d="
M174.273483,342.440613 
	C189.733932,342.019714 205.326050,342.012177 221.376038,342.008667 
	C221.045731,342.341278 220.257767,342.955566 219.469437,342.956055 
	C204.448044,342.965240 189.426605,342.902069 174.273483,342.440613 
z"/>
<path fill="#DD0120" opacity="1.000000" stroke="none" 
	d="
M1128.269287,342.434814 
	C1143.740601,342.012726 1159.339478,342.006195 1175.397705,342.004089 
	C1175.244751,342.337982 1174.632568,342.954712 1174.020142,342.954895 
	C1158.812500,342.959656 1143.604736,342.899231 1128.269287,342.434814 
z"/>
<path fill="#FFFFFF" opacity="1.000000" stroke="none" 
	d="
M308.804474,162.002731 
	C314.556519,164.594849 320.345642,166.526794 325.103210,169.909531 
	C335.355835,177.199402 333.544189,188.762802 329.670624,198.595230 
	C324.512146,211.689117 313.106140,218.074249 300.638519,219.569946 
	C280.062866,222.038345 259.179535,221.941956 237.563278,222.967438 
	C240.481979,201.058395 243.200119,180.654816 245.951172,160.004227 
	C263.263672,160.004227 280.068207,159.883911 296.868591,160.095154 
	C300.711060,160.143448 304.539185,161.334915 308.804474,162.002731 
z"/>
<path fill="#FFFFFF" opacity="1.000000" stroke="none" 
	d="
M1415.293213,247.705811 
	C1416.683472,251.524612 1417.829102,255.019104 1419.049561,258.741699 
	C1391.254395,258.741699 1363.748047,258.741699 1335.742310,258.741699 
	C1353.398804,229.980301 1370.803467,201.629211 1388.950684,172.068451 
	C1397.870117,197.807907 1406.459351,222.594711 1415.293213,247.705811 
z"/>
</svg>